<mxfile host="Electron" modified="2024-01-20T16:54:59.778Z" agent="Mozilla/5.0 (Windows NT 10.0; Win64; x64) AppleWebKit/537.36 (KHTML, like Gecko) draw.io/22.1.21 Chrome/120.0.6099.109 Electron/28.1.0 Safari/537.36" etag="jwKBQP9ph45jRLIHy1I-" version="22.1.21" type="device">
  <diagram name="Page-1" id="9RDmgMSrVZAOL-lc2ijB">
    <mxGraphModel dx="3839" dy="899" grid="1" gridSize="10" guides="1" tooltips="1" connect="1" arrows="1" fold="1" page="1" pageScale="1" pageWidth="2339" pageHeight="3300" math="0" shadow="0">
      <root>
        <mxCell id="0" />
        <mxCell id="1" parent="0" />
        <mxCell id="HvqwYxyJVgI_4CELtDbY-2" value="" style="rounded=0;whiteSpace=wrap;html=1;movable=0;resizable=0;rotatable=0;deletable=0;editable=0;locked=1;connectable=0;" vertex="1" parent="1">
          <mxGeometry x="30" y="190" width="860" height="1090" as="geometry" />
        </mxCell>
        <mxCell id="HvqwYxyJVgI_4CELtDbY-1" value="" style="outlineConnect=0;dashed=0;verticalLabelPosition=bottom;verticalAlign=top;align=center;html=1;shape=mxgraph.aws3.cloud_2;fillColor=#F58534;gradientColor=none;movable=1;resizable=1;rotatable=1;deletable=1;editable=1;locked=0;connectable=1;" vertex="1" parent="1">
          <mxGeometry x="30" y="190" width="40" height="50" as="geometry" />
        </mxCell>
        <mxCell id="HvqwYxyJVgI_4CELtDbY-4" value="" style="rounded=0;whiteSpace=wrap;html=1;dashed=1;strokeColor=#04fb14;movable=0;resizable=0;rotatable=0;deletable=0;editable=0;locked=1;connectable=0;" vertex="1" parent="1">
          <mxGeometry x="236" y="265" width="604" height="435" as="geometry" />
        </mxCell>
        <mxCell id="HvqwYxyJVgI_4CELtDbY-6" value="" style="outlineConnect=0;dashed=0;verticalLabelPosition=bottom;verticalAlign=top;align=center;html=1;shape=mxgraph.aws3.virtual_private_cloud;fillColor=#F58534;gradientColor=none;movable=1;resizable=1;rotatable=1;deletable=1;editable=1;locked=0;connectable=1;" vertex="1" parent="1">
          <mxGeometry x="786" y="265" width="50" height="30" as="geometry" />
        </mxCell>
        <mxCell id="HvqwYxyJVgI_4CELtDbY-14" value="" style="verticalLabelPosition=bottom;sketch=0;html=1;verticalAlign=top;aspect=fixed;align=center;pointerEvents=1;shape=actor;fillColor=#005073;strokeColor=none;whiteSpace=wrap;" vertex="1" parent="1">
          <mxGeometry x="-310" y="485" width="87" height="87" as="geometry" />
        </mxCell>
        <mxCell id="HvqwYxyJVgI_4CELtDbY-19" style="edgeStyle=orthogonalEdgeStyle;rounded=0;orthogonalLoop=1;jettySize=auto;html=1;exitX=0.5;exitY=1;exitDx=0;exitDy=0;exitPerimeter=0;entryX=0.5;entryY=0;entryDx=0;entryDy=0;entryPerimeter=0;" edge="1" parent="1" source="HvqwYxyJVgI_4CELtDbY-17" target="HvqwYxyJVgI_4CELtDbY-23">
          <mxGeometry relative="1" as="geometry">
            <mxPoint x="520" y="280" as="targetPoint" />
            <Array as="points">
              <mxPoint x="-108" y="522" />
              <mxPoint x="197" y="522" />
              <mxPoint x="197" y="230" />
              <mxPoint x="545" y="230" />
            </Array>
          </mxGeometry>
        </mxCell>
        <mxCell id="HvqwYxyJVgI_4CELtDbY-17" value="" style="fillColor=#28A8E0;verticalLabelPosition=bottom;sketch=0;html=1;strokeColor=#ffffff;verticalAlign=top;align=center;points=[[0.145,0.145,0],[0.5,0,0],[0.855,0.145,0],[1,0.5,0],[0.855,0.855,0],[0.5,1,0],[0.145,0.855,0],[0,0.5,0]];pointerEvents=1;shape=mxgraph.cisco_safe.compositeIcon;bgIcon=ellipse;resIcon=mxgraph.cisco_safe.capability.dns;" vertex="1" parent="1">
          <mxGeometry x="-140" y="483" width="100" height="90" as="geometry" />
        </mxCell>
        <mxCell id="HvqwYxyJVgI_4CELtDbY-36" style="edgeStyle=orthogonalEdgeStyle;rounded=0;orthogonalLoop=1;jettySize=auto;html=1;exitX=0;exitY=0.5;exitDx=0;exitDy=0;exitPerimeter=0;movable=0;resizable=0;rotatable=0;deletable=0;editable=0;locked=1;connectable=0;" edge="1" parent="1" source="HvqwYxyJVgI_4CELtDbY-23" target="HvqwYxyJVgI_4CELtDbY-28">
          <mxGeometry relative="1" as="geometry" />
        </mxCell>
        <mxCell id="HvqwYxyJVgI_4CELtDbY-38" style="edgeStyle=orthogonalEdgeStyle;rounded=0;orthogonalLoop=1;jettySize=auto;html=1;exitX=1;exitY=0.5;exitDx=0;exitDy=0;exitPerimeter=0;movable=0;resizable=0;rotatable=0;deletable=0;editable=0;locked=1;connectable=0;" edge="1" parent="1" source="HvqwYxyJVgI_4CELtDbY-23" target="HvqwYxyJVgI_4CELtDbY-30">
          <mxGeometry relative="1" as="geometry" />
        </mxCell>
        <mxCell id="HvqwYxyJVgI_4CELtDbY-23" value="" style="outlineConnect=0;dashed=0;verticalLabelPosition=bottom;verticalAlign=top;align=center;html=1;shape=mxgraph.aws3.application_load_balancer;fillColor=#F58536;gradientColor=none;movable=0;resizable=0;rotatable=0;deletable=0;editable=0;locked=1;connectable=0;" vertex="1" parent="1">
          <mxGeometry x="510" y="280" width="69" height="72" as="geometry" />
        </mxCell>
        <mxCell id="HvqwYxyJVgI_4CELtDbY-28" value="Availability zone" style="sketch=0;outlineConnect=0;gradientColor=none;html=1;whiteSpace=wrap;fontSize=12;fontStyle=0;shape=mxgraph.aws4.group;grIcon=mxgraph.aws4.group_availability_zone;strokeColor=#E8E8E8;fillColor=none;verticalAlign=top;align=left;spacingLeft=30;fontColor=#E8E8E8;dashed=1;movable=0;resizable=0;rotatable=0;deletable=0;editable=0;locked=1;connectable=0;" vertex="1" parent="1">
          <mxGeometry x="284" y="380" width="136" height="160" as="geometry" />
        </mxCell>
        <mxCell id="HvqwYxyJVgI_4CELtDbY-30" value="Availability zone" style="sketch=0;outlineConnect=0;gradientColor=none;html=1;whiteSpace=wrap;fontSize=12;fontStyle=0;shape=mxgraph.aws4.group;grIcon=mxgraph.aws4.group_availability_zone;strokeColor=#E8E8E8;fillColor=none;verticalAlign=top;align=left;spacingLeft=30;fontColor=#E8E8E8;dashed=1;movable=0;resizable=0;rotatable=0;deletable=0;editable=0;locked=1;connectable=0;" vertex="1" parent="1">
          <mxGeometry x="635" y="380" width="125" height="160" as="geometry" />
        </mxCell>
        <mxCell id="HvqwYxyJVgI_4CELtDbY-33" value="Amazon EC2" style="sketch=0;outlineConnect=0;fontColor=#232F3E;gradientColor=none;strokeColor=#ffffff;fillColor=#232F3E;dashed=0;verticalLabelPosition=middle;verticalAlign=bottom;align=center;html=1;whiteSpace=wrap;fontSize=10;fontStyle=1;spacing=3;shape=mxgraph.aws4.productIcon;prIcon=mxgraph.aws4.ec2;movable=0;resizable=0;rotatable=0;deletable=0;editable=0;locked=1;connectable=0;" vertex="1" parent="1">
          <mxGeometry x="309" y="422" width="80" height="100" as="geometry" />
        </mxCell>
        <mxCell id="HvqwYxyJVgI_4CELtDbY-35" value="Amazon EC2" style="sketch=0;outlineConnect=0;fontColor=#232F3E;gradientColor=none;strokeColor=#ffffff;fillColor=#232F3E;dashed=0;verticalLabelPosition=middle;verticalAlign=bottom;align=center;html=1;whiteSpace=wrap;fontSize=10;fontStyle=1;spacing=3;shape=mxgraph.aws4.productIcon;prIcon=mxgraph.aws4.ec2;movable=0;resizable=0;rotatable=0;deletable=0;editable=0;locked=1;connectable=0;" vertex="1" parent="1">
          <mxGeometry x="660" y="425" width="80" height="100" as="geometry" />
        </mxCell>
        <mxCell id="HvqwYxyJVgI_4CELtDbY-94" style="edgeStyle=orthogonalEdgeStyle;rounded=0;orthogonalLoop=1;jettySize=auto;html=1;" edge="1" parent="1" source="HvqwYxyJVgI_4CELtDbY-42" target="HvqwYxyJVgI_4CELtDbY-71">
          <mxGeometry relative="1" as="geometry" />
        </mxCell>
        <mxCell id="HvqwYxyJVgI_4CELtDbY-98" style="edgeStyle=orthogonalEdgeStyle;rounded=0;orthogonalLoop=1;jettySize=auto;html=1;" edge="1" parent="1" source="HvqwYxyJVgI_4CELtDbY-42" target="HvqwYxyJVgI_4CELtDbY-45">
          <mxGeometry relative="1" as="geometry" />
        </mxCell>
        <mxCell id="HvqwYxyJVgI_4CELtDbY-42" value="Amazon RDS" style="sketch=0;outlineConnect=0;fontColor=#232F3E;gradientColor=none;strokeColor=#ffffff;fillColor=#232F3E;dashed=0;verticalLabelPosition=middle;verticalAlign=bottom;align=center;html=1;whiteSpace=wrap;fontSize=10;fontStyle=1;spacing=3;shape=mxgraph.aws4.productIcon;prIcon=mxgraph.aws4.rds;" vertex="1" parent="1">
          <mxGeometry x="500" y="720" width="80" height="100" as="geometry" />
        </mxCell>
        <mxCell id="HvqwYxyJVgI_4CELtDbY-99" style="edgeStyle=orthogonalEdgeStyle;rounded=0;orthogonalLoop=1;jettySize=auto;html=1;" edge="1" parent="1" source="HvqwYxyJVgI_4CELtDbY-45" target="HvqwYxyJVgI_4CELtDbY-42">
          <mxGeometry relative="1" as="geometry" />
        </mxCell>
        <mxCell id="HvqwYxyJVgI_4CELtDbY-45" value="Auto Scaling group" style="points=[[0,0],[0.25,0],[0.5,0],[0.75,0],[1,0],[1,0.25],[1,0.5],[1,0.75],[1,1],[0.75,1],[0.5,1],[0.25,1],[0,1],[0,0.75],[0,0.5],[0,0.25]];outlineConnect=0;gradientColor=none;html=1;whiteSpace=wrap;fontSize=12;fontStyle=0;container=1;pointerEvents=0;collapsible=0;recursiveResize=0;shape=mxgraph.aws4.groupCenter;grIcon=mxgraph.aws4.group_auto_scaling_group;grStroke=1;strokeColor=#D86613;fillColor=none;verticalAlign=top;align=center;fontColor=#D86613;dashed=1;spacingTop=25;movable=1;resizable=1;rotatable=1;deletable=1;editable=1;locked=0;connectable=1;" vertex="1" parent="1">
          <mxGeometry x="270" y="365" width="540" height="185" as="geometry" />
        </mxCell>
        <mxCell id="HvqwYxyJVgI_4CELtDbY-70" style="edgeStyle=orthogonalEdgeStyle;rounded=0;orthogonalLoop=1;jettySize=auto;html=1;exitX=0.5;exitY=1;exitDx=0;exitDy=0;exitPerimeter=0;entryX=0.5;entryY=0;entryDx=0;entryDy=0;" edge="1" parent="1" source="HvqwYxyJVgI_4CELtDbY-17" target="HvqwYxyJVgI_4CELtDbY-76">
          <mxGeometry relative="1" as="geometry" />
        </mxCell>
        <mxCell id="HvqwYxyJVgI_4CELtDbY-75" style="edgeStyle=orthogonalEdgeStyle;rounded=0;orthogonalLoop=1;jettySize=auto;html=1;" edge="1" parent="1" source="HvqwYxyJVgI_4CELtDbY-71" target="HvqwYxyJVgI_4CELtDbY-42">
          <mxGeometry relative="1" as="geometry">
            <mxPoint x="516" y="550" as="targetPoint" />
          </mxGeometry>
        </mxCell>
        <mxCell id="HvqwYxyJVgI_4CELtDbY-71" value="Amazon S3" style="sketch=0;outlineConnect=0;fontColor=#232F3E;gradientColor=none;strokeColor=#ffffff;fillColor=#232F3E;dashed=0;verticalLabelPosition=middle;verticalAlign=bottom;align=center;html=1;whiteSpace=wrap;fontSize=10;fontStyle=1;spacing=3;shape=mxgraph.aws4.productIcon;prIcon=mxgraph.aws4.s3;" vertex="1" parent="1">
          <mxGeometry x="499" y="1000" width="80" height="100" as="geometry" />
        </mxCell>
        <mxCell id="HvqwYxyJVgI_4CELtDbY-72" style="edgeStyle=orthogonalEdgeStyle;rounded=0;orthogonalLoop=1;jettySize=auto;html=1;exitX=0.5;exitY=1;exitDx=0;exitDy=0;" edge="1" parent="1" source="HvqwYxyJVgI_4CELtDbY-4" target="HvqwYxyJVgI_4CELtDbY-4">
          <mxGeometry relative="1" as="geometry" />
        </mxCell>
        <mxCell id="HvqwYxyJVgI_4CELtDbY-90" style="edgeStyle=orthogonalEdgeStyle;rounded=0;orthogonalLoop=1;jettySize=auto;html=1;exitX=1;exitY=0.5;exitDx=0;exitDy=0;" edge="1" parent="1" source="HvqwYxyJVgI_4CELtDbY-76" target="HvqwYxyJVgI_4CELtDbY-78">
          <mxGeometry relative="1" as="geometry" />
        </mxCell>
        <mxCell id="HvqwYxyJVgI_4CELtDbY-76" value="" style="image;aspect=fixed;perimeter=ellipsePerimeter;html=1;align=center;shadow=0;dashed=0;fontColor=#4277BB;labelBackgroundColor=default;fontSize=12;spacingTop=3;image=img/lib/ibm/miscellaneous/microservices_application.svg;" vertex="1" parent="1">
          <mxGeometry x="120" y="1020" width="60" height="60" as="geometry" />
        </mxCell>
        <mxCell id="HvqwYxyJVgI_4CELtDbY-91" style="edgeStyle=orthogonalEdgeStyle;rounded=0;orthogonalLoop=1;jettySize=auto;html=1;exitX=0;exitY=0.5;exitDx=0;exitDy=0;exitPerimeter=0;entryX=1;entryY=0.5;entryDx=0;entryDy=0;" edge="1" parent="1" source="HvqwYxyJVgI_4CELtDbY-78" target="HvqwYxyJVgI_4CELtDbY-76">
          <mxGeometry relative="1" as="geometry" />
        </mxCell>
        <mxCell id="HvqwYxyJVgI_4CELtDbY-92" style="edgeStyle=orthogonalEdgeStyle;rounded=0;orthogonalLoop=1;jettySize=auto;html=1;exitX=1;exitY=0.5;exitDx=0;exitDy=0;exitPerimeter=0;" edge="1" parent="1" source="HvqwYxyJVgI_4CELtDbY-78" target="HvqwYxyJVgI_4CELtDbY-71">
          <mxGeometry relative="1" as="geometry" />
        </mxCell>
        <mxCell id="HvqwYxyJVgI_4CELtDbY-78" value="" style="outlineConnect=0;dashed=0;verticalLabelPosition=bottom;verticalAlign=top;align=center;html=1;shape=mxgraph.aws3.cache_node;fillColor=#2E73B8;gradientColor=none;" vertex="1" parent="1">
          <mxGeometry x="329" y="1018.5" width="60" height="63" as="geometry" />
        </mxCell>
        <mxCell id="HvqwYxyJVgI_4CELtDbY-81" value="&lt;font size=&quot;3&quot;&gt;AI- POWERED&lt;br&gt;RECOMMENDING ENGINE&lt;br&gt;&lt;/font&gt;" style="text;strokeColor=none;align=center;fillColor=none;html=1;verticalAlign=middle;whiteSpace=wrap;rounded=0;" vertex="1" parent="1">
          <mxGeometry x="100" y="1110" width="130" height="110" as="geometry" />
        </mxCell>
        <mxCell id="HvqwYxyJVgI_4CELtDbY-85" style="edgeStyle=orthogonalEdgeStyle;rounded=0;orthogonalLoop=1;jettySize=auto;html=1;exitX=0.9;exitY=0.5;exitDx=0;exitDy=0;exitPerimeter=0;entryX=0;entryY=0.5;entryDx=0;entryDy=0;entryPerimeter=0;" edge="1" parent="1" source="HvqwYxyJVgI_4CELtDbY-14" target="HvqwYxyJVgI_4CELtDbY-17">
          <mxGeometry relative="1" as="geometry" />
        </mxCell>
        <mxCell id="HvqwYxyJVgI_4CELtDbY-86" style="edgeStyle=orthogonalEdgeStyle;rounded=0;orthogonalLoop=1;jettySize=auto;html=1;exitX=0.5;exitY=0;exitDx=0;exitDy=0;entryX=0.5;entryY=1;entryDx=0;entryDy=0;entryPerimeter=0;" edge="1" parent="1" source="HvqwYxyJVgI_4CELtDbY-76" target="HvqwYxyJVgI_4CELtDbY-17">
          <mxGeometry relative="1" as="geometry" />
        </mxCell>
        <mxCell id="HvqwYxyJVgI_4CELtDbY-93" style="edgeStyle=orthogonalEdgeStyle;rounded=0;orthogonalLoop=1;jettySize=auto;html=1;entryX=1;entryY=0.5;entryDx=0;entryDy=0;entryPerimeter=0;" edge="1" parent="1" source="HvqwYxyJVgI_4CELtDbY-71" target="HvqwYxyJVgI_4CELtDbY-78">
          <mxGeometry relative="1" as="geometry" />
        </mxCell>
      </root>
    </mxGraphModel>
  </diagram>
</mxfile>
